<?xml version="1.0" encoding="utf-8"?>
<svg xmlns="http://www.w3.org/2000/svg" width="100" height="100" viewBox="0 0 100 100"><defs><linearGradient id="a" x1=".5" x2=".5" y2="1" gradientUnits="objectBoundingBox"><stop offset="0" stop-color="#fd9e27"/><stop offset="1" stop-color="#ff984b"/></linearGradient></defs><g transform="translate(-937 -1050)"><circle data-name="Ellipse 348" cx="50" cy="50" r="50" transform="translate(937 1050)" fill="url(#a)"/><g data-name="Group 3067"><g data-name="Group 3065"><path data-name="Path 4376" d="M1014.032 1104.518v-7.3l-6.975-1.137a20.84 20.84 0 00-2.639-6.346l4.136-5.745-5.161-5.161-4.813 3.463a12.006 12.006 0 00-8.494-11.254.943.943 0 00-1.218.9v10.27l-2.35 1.837-2.353-1.837v-10.27a.943.943 0 00-1.216-.9 12 12 0 00-8.494 11.254l-4.813-3.463-5.161 5.161 4.134 5.745a20.915 20.915 0 00-2.639 6.346l-6.975 1.137v7.3l6.975 1.135a20.885 20.885 0 002.639 6.346l-4.134 5.745 5.161 5.162 5.745-4.137a20.84 20.84 0 006.346 2.639l1.137 6.975h7.3l1.135-6.975a20.808 20.808 0 006.346-2.639l5.746 4.137 5.161-5.162-4.136-5.745a20.81 20.81 0 002.639-6.346zm-8.337.322a19.405 19.405 0 01-2.815 6.77l-.285.434 3.99 5.54-3.351 3.351-5.542-3.99-.434.285a19.4 19.4 0 01-6.769 2.815l-.507.1-1.1 6.728h-4.738l-1.1-6.728-.509-.1a19.422 19.422 0 01-6.769-2.815l-.432-.285-5.543 3.99-3.348-3.351 3.987-5.54-.283-.434a19.408 19.408 0 01-2.817-6.77l-.1-.507-6.728-1.094v-4.739l6.728-1.1.1-.509a19.423 19.423 0 012.817-6.769l.283-.432-3.987-5.543 3.348-3.348 4.748 3.416a12.092 12.092 0 006.665 9.215v12.253h1.505v-13.221l-.45-.2a10.571 10.571 0 01.391-19.529v9.766l.062.5 3.235 2.525a.915.915 0 001.123 0l2.954-2.306.34-.352v-10.132a10.571 10.571 0 01.391 19.529l-.45.2v13.224h1.505v-12.254a12.094 12.094 0 006.666-9.215l4.747-3.416 3.351 3.348-3.99 5.543.285.432a19.421 19.421 0 012.815 6.769l.1.509 6.728 1.1v4.739l-6.728 1.094z" fill="#fff"/></g><g data-name="Group 3066"><path data-name="Path 4377" d="M994.834 1094.656a10.03 10.03 0 11-16.916.441l-1.292-.777a11.537 11.537 0 1019.454-.509z" fill="#fff"/></g></g></g></svg>